<?xml version="1.0" encoding="UTF-8" standalone="no"?><!DOCTYPE svg PUBLIC "-//W3C//DTD SVG 1.1//EN" "http://www.w3.org/Graphics/SVG/1.1/DTD/svg11.dtd"><svg width="100%" height="100%" viewBox="0 0 421 841" version="1.1" xmlns="http://www.w3.org/2000/svg" xmlns:xlink="http://www.w3.org/1999/xlink" xml:space="preserve" xmlns:serif="http://www.serif.com/" style="fill-rule:evenodd;clip-rule:evenodd;stroke-linejoin:round;stroke-miterlimit:2;"><g transform="matrix(1,0,0,1,-142.878,-59.0925)"><g transform="matrix(4.16667,0,0,4.16667,0,0)"><g transform="matrix(1,0,0,1,80.4457,26.0702)"><path d="M0,178.103C0.094,177.991 0.188,177.879 0.283,177.767L-3.049,174.785C-3.165,174.918 -3.28,175.051 -3.396,175.184C-3.116,175.407 -2.821,175.612 -2.561,175.854C-2.077,176.307 -1.267,176.747 -1.214,177.256C-1.105,178.298 -0.603,178.157 0,178.103M-4.262,128.983C-3.998,128.264 -3.705,127.76 -3.644,127.23C-3.543,126.362 -3.485,125.462 -3.602,124.602C-3.922,122.229 -4.367,119.874 -4.713,117.504C-4.891,116.284 -5.414,114.849 -4.98,113.862C-4.202,112.092 -4.936,110.633 -5.232,109.068C-5.341,108.49 -5.771,107.961 -6.1,107.437C-6.771,106.364 -7.775,105.392 -8.089,104.228C-8.525,102.617 -9.549,101.518 -10.658,100.55C-11.896,99.468 -13.386,98.642 -14.851,97.86C-16.153,97.165 -17.52,96.458 -18.944,96.152C-22.714,95.342 -26.524,94.711 -30.33,94.082C-31.886,93.825 -33.471,93.731 -35.047,93.631C-35.301,93.615 -35.746,93.906 -35.815,94.141C-36.237,95.554 -36.589,96.99 -36.93,98.426C-37,98.725 -36.998,99.311 -36.909,99.336C-35.294,99.789 -36.727,100.501 -36.782,101.176C-36.503,101.1 -36.289,101.04 -35.968,100.951C-35.893,102.768 -35.032,104.37 -35.285,106.145C-35.306,106.292 -35.126,106.473 -35.026,106.629C-34.587,107.308 -34.022,107.936 -33.735,108.672C-33.441,109.426 -33.428,110.286 -33.272,111.096C-33.003,112.499 -32.753,113.908 -32.432,115.3C-32.113,116.685 -31.718,118.053 -31.354,119.427C-31.293,119.652 -31.209,119.872 -31.148,120.097C-30.816,121.322 -30.562,122.574 -30.138,123.767C-29.65,125.138 -28.999,126.45 -28.444,127.798C-27.642,129.748 -26.864,131.708 -26.073,133.663C-25.519,135.031 -25.073,136.458 -24.375,137.749C-23.358,139.634 -22.203,141.45 -21.027,143.243C-16.996,149.387 -12.938,155.514 -8.87,161.634C-8.296,162.498 -7.692,163.369 -6.961,164.093C-5.421,165.617 -3.788,167.045 -2.193,168.514C-2.047,167.47 -2.192,166.645 -2.235,165.816C-2.338,163.782 -2.007,161.631 -2.565,159.739C-3.3,157.248 -3.036,154.941 -2.54,152.549C-2.131,150.573 -2.138,148.649 -2.572,146.627C-3.128,144.034 -3.309,141.355 -3.576,138.706C-3.714,137.336 -3.71,135.951 -3.731,134.572C-3.746,133.606 -3.629,132.634 -3.688,131.672C-3.748,130.702 -3.216,129.558 -4.262,128.983M14.872,66.55C13.966,66.314 13.127,65.878 12.319,65.929C10.534,66.04 8.757,66.357 6.99,66.663C5.058,66.996 3.086,67.718 1.824,65.719C1.062,66.001 0.514,66.242 -0.056,66.404C-0.863,66.634 -1.646,66.639 -2.385,67.352C-2.936,67.883 -4.191,68.028 -5.028,67.851C-6.896,67.456 -8.607,68.134 -10.38,68.312C-11.802,68.455 -13.194,68.883 -14.6,69.182C-16.205,69.523 -17.806,69.882 -19.416,70.196C-22.249,70.749 -25.056,71.021 -27.978,70.55C-29.413,70.319 -31.034,70.859 -32.499,71.293C-34.103,71.769 -35.655,72.167 -37.46,71.585C-37.765,76.697 -37.053,81.645 -36.498,86.584C-34.64,86.584 -32.896,86.531 -31.157,86.601C-29.699,86.659 -28.248,86.862 -26.793,87.001C-25.758,87.101 -24.655,86.919 -23.902,87.983C-23.742,88.208 -23.156,88.184 -22.766,88.185C-21.591,88.188 -20.502,88.2 -19.325,88.723C-18.451,89.111 -17.331,89.791 -16.544,89.664C-15.481,89.492 -14.679,89.726 -13.841,90.108C-13.263,90.372 -12.789,90.856 -12.241,91.198C-11.966,91.37 -11.557,91.621 -11.333,91.53C-10.443,91.168 -9.976,91.698 -9.498,92.25C-8.891,92.951 -8.297,93.65 -7.212,93.406C-7.102,93.38 -6.924,93.38 -6.864,93.447C-5.582,94.862 -3.504,95.503 -2.867,97.545C-2.808,97.733 -2.788,97.974 -2.66,98.096C-1.014,99.663 -0.943,101.932 -0.071,103.842C0.407,104.888 1.211,105.911 1.287,106.985C1.379,108.3 2.827,109.275 2.092,110.758C1.972,111 2.593,111.545 2.534,111.892C2.182,113.94 2.53,115.945 2.713,117.97C2.794,118.866 2.568,119.789 2.485,120.7C2.474,120.818 2.458,120.944 2.485,121.057C2.898,122.842 3.199,124.644 3.456,126.461C3.673,128.005 3.814,127.986 3.248,129.222C3.118,130.044 3.01,130.87 2.843,131.684C2.792,131.937 2.444,132.165 2.458,132.39C2.645,135.506 2.905,138.618 3.071,141.735C3.129,142.833 2.878,143.951 2.955,145.046C3.056,146.501 3.126,148.017 3.595,149.374C4.329,151.495 4.604,153.552 4.265,155.788C3.996,157.566 4.22,159.415 4.017,161.208C3.88,162.413 4.272,163.478 4.419,164.607C4.638,166.275 3.695,167.576 2.959,168.927C2.56,169.66 2.069,170.342 2.116,170.556C4.436,173.075 6.756,175.594 9.123,178.163C9.45,177.756 9.856,177.165 10.35,176.658C11.284,175.699 12.296,174.817 13.221,173.85C13.869,173.174 14.395,172.383 15.033,171.698C15.551,171.14 16.185,170.69 16.714,170.14C17.229,169.607 17.74,169.048 18.134,168.427C18.569,167.741 18.805,166.928 19.247,166.247C19.809,165.376 20.452,164.549 21.129,163.765C21.715,163.087 22.371,162.461 23.049,161.875C23.663,161.346 24.206,160.924 24.085,159.916C24.017,159.342 24.457,158.636 24.827,158.099C25.391,157.281 26.132,156.584 26.727,155.785C27.281,155.04 27.836,154.324 27.716,153.228C27.652,152.647 28.104,151.986 28.392,151.395C28.933,150.285 29.512,149.192 30.098,148.103C31.019,146.394 31.969,144.702 32.882,142.989C33.163,142.464 33.399,141.909 33.592,141.346C33.891,140.475 33.792,139.39 34.949,139.015C35.037,138.986 35.102,138.839 35.147,138.734C36.238,136.223 37.643,133.79 38.298,131.169C38.725,129.458 40.217,127.958 39.583,125.972C39.505,125.727 39.668,125.312 39.855,125.09C40.542,124.272 40.797,123.497 40.153,122.487C39.965,122.193 40.144,121.536 40.35,121.148C40.775,120.35 41.339,119.625 41.827,118.858C41.926,118.702 42.031,118.453 41.974,118.308C41.421,116.87 42.328,115.707 42.702,114.46C43.135,113.018 43.703,111.615 44.251,110.087C43.896,110.108 43.691,110.121 43.377,110.14C43.403,109.588 43.246,108.962 43.484,108.587C44.192,107.471 43.995,106.186 44.352,105.02C44.48,104.602 44.846,104.248 44.935,103.828C45.052,103.271 45.092,102.667 45.012,102.106C44.755,100.321 44.505,98.551 45.419,96.792C45.511,97.166 45.603,97.54 45.77,98.221C46.557,96.189 46.338,94.407 46.163,92.627C46.135,92.356 46.059,92.083 46.078,91.816C46.225,89.636 46.436,87.46 46.534,85.279C46.596,83.888 46.43,82.479 47.345,81.268C47.462,81.113 47.632,80.848 47.576,80.739C46.993,79.614 47.389,78.56 47.7,77.468C47.941,76.62 48.039,75.729 48.201,74.858C48.273,74.469 48.411,74.079 48.408,73.69C48.388,71.351 48.243,69.009 48.328,66.675C48.39,64.96 48.742,63.255 48.965,61.54C49.66,61.562 50.255,61.268 50.111,60.429C49.95,59.499 49.722,58.533 49.289,57.706C48.073,55.39 47.542,53.027 48.128,50.42C48.244,49.91 47.746,49.291 47.716,48.714C47.669,47.793 47.814,46.865 47.815,45.94C47.825,41.361 46.663,36.945 45.961,32.461C45.555,29.861 45.363,27.211 45.288,24.578C45.2,21.529 45.383,18.473 45.374,15.421C45.369,14.032 45.138,12.645 45.096,11.255C45.065,10.247 45.18,9.234 45.22,8.223C45.226,8.071 45.195,7.912 45.149,7.766C44.082,4.4 44.29,0.966 44.673,-2.459C44.962,-5.037 45.343,-7.608 45.804,-10.161C45.916,-10.78 46.5,-11.314 46.868,-11.888C47.32,-11.369 47.984,-10.922 48.186,-10.319C48.984,-7.939 49.693,-5.524 50.333,-3.096C51.486,1.27 51.221,5.777 51.544,10.225C51.879,14.837 52.225,19.45 52.467,24.067C52.599,26.574 52.662,29.099 52.515,31.602C52.212,36.803 53.137,41.879 53.806,46.989C54.502,52.306 54.947,57.623 54.469,63.011C54.25,65.495 54.661,68.034 54.764,70.549C54.847,72.535 54.77,74.476 54.453,76.479C54.172,78.249 53.637,80.251 54.609,82.098C54.89,82.633 55.015,83.193 54.321,83.663C54.064,83.835 53.974,84.359 53.937,84.736C53.447,89.627 53.038,94.527 52.492,99.412C51.938,104.373 51.438,109.353 50.543,114.257C50.14,116.467 48.835,118.512 47.942,120.632C47.789,120.997 47.596,121.354 47.504,121.734C47,123.842 46.531,125.959 46.028,128.067C45.8,129.022 45.932,130.104 45.066,130.849C44.97,130.932 44.916,131.177 44.964,131.295C45.794,133.292 44.958,134.987 44.044,136.686C43.881,136.99 43.926,137.399 43.788,137.722C43.146,139.221 42.477,140.709 41.811,142.198C41.032,143.939 40.244,145.677 39.461,147.416C39.379,147.598 39.324,147.791 39.23,147.965C38.322,149.648 37.401,151.324 36.497,153.008C35.417,155.017 34.41,157.068 33.261,159.037C32.018,161.169 30.711,163.27 29.317,165.306C28.254,166.857 26.978,168.26 25.854,169.771C21.748,175.29 17.51,180.691 12.279,185.223C9.1,187.976 5.495,188.349 1.734,186.885C-0.253,186.112 -2.101,184.93 -3.926,183.796C-5.893,182.574 -7.752,181.179 -9.676,179.885C-10.102,179.599 -10.581,179.349 -11.071,179.208C-12.017,178.937 -12.37,179.319 -12.194,180.305C-11.973,181.546 -11.599,182.788 -11.585,184.033C-11.552,187.186 -14.55,189.991 -17.703,189.859C-18.089,189.843 -18.594,189.631 -18.798,189.338C-18.929,189.151 -18.699,188.578 -18.477,188.3C-17.853,187.523 -17.1,186.846 -16.487,186.061C-15.413,184.684 -15.57,183.632 -16.979,182.596C-17.977,181.862 -19.045,181.224 -20.042,180.49C-22.333,178.8 -22.465,176.831 -20.733,174.564C-19.919,173.499 -18.899,172.986 -17.757,172.504C-17.146,172.247 -16.599,171.624 -16.001,171.594C-14.7,171.529 -13.377,171.686 -12.079,171.863C-11.584,171.93 -11.141,172.322 -10.659,172.53C-9.808,172.897 -8.737,173.026 -8.131,173.629C-6.854,174.902 -5.083,174.206 -3.807,175.193C-3.753,175.094 -3.7,174.996 -3.646,174.896C-4.509,174.215 -5.373,173.534 -6.218,172.867C-7.152,173.46 -8.864,172.459 -9.183,171.226C-9.254,170.955 -9.372,170.668 -9.547,170.455C-10.055,169.835 -10.582,169.229 -11.146,168.663C-11.345,168.461 -11.659,168.321 -11.943,168.266C-13.535,167.961 -15.513,165.308 -15.2,163.859C-17.343,162.891 -18.904,161.046 -19.551,159.074C-20.366,156.588 -22.179,155.103 -23.598,153.204C-24.365,152.177 -24.916,150.991 -25.594,149.895C-26.024,149.197 -26.562,148.562 -26.953,147.844C-27.275,147.25 -27.432,146.568 -27.701,145.941C-27.919,145.432 -28.133,144.901 -28.458,144.461C-29.008,143.72 -29.709,143.086 -30.226,142.326C-30.693,141.637 -31.018,140.848 -31.37,140.087C-32.102,138.505 -31.787,136.458 -33.696,135.365C-34.137,135.112 -34.133,134.05 -34.299,133.352C-34.593,132.125 -34.757,130.852 -36.001,130.104C-36.281,129.936 -36.505,129.579 -36.626,129.261C-37.307,127.472 -38.006,125.687 -38.579,123.863C-38.884,122.893 -38.946,121.846 -39.114,120.832C-39.141,120.675 -39.092,120.48 -39.167,120.36C-40.172,118.763 -39.92,116.885 -40.31,115.153C-40.701,113.415 -40.773,111.607 -41.027,109.836C-41.098,109.345 -41.352,108.883 -41.462,108.395C-41.533,108.085 -41.627,107.662 -41.481,107.444C-40.864,106.525 -41.335,105.974 -41.936,105.299C-42.247,104.949 -42.396,104.283 -42.325,103.802C-42.208,103.002 -42.372,102.489 -42.968,101.908C-43.303,101.581 -43.283,100.828 -43.302,100.262C-43.316,99.859 -43.011,99.438 -43.049,99.045C-43.208,97.395 -43.442,95.752 -43.67,93.934C-43.986,93.794 -44.502,93.601 -44.984,93.345C-46.36,92.614 -46.563,91.599 -45.382,90.611C-44.21,89.63 -43.903,88.552 -44.196,87.085C-44.328,86.421 -43.911,85.665 -43.88,84.944C-43.854,84.339 -44.104,83.724 -44.095,83.115C-44.078,81.999 -43.855,80.879 -43.909,79.77C-43.98,78.279 -44.232,76.797 -44.407,75.312C-44.434,75.08 -44.484,74.85 -44.489,74.618C-44.53,72.671 -44.625,70.722 -44.573,68.776C-44.548,67.822 -44.223,66.879 -44.083,65.923C-44.011,65.425 -44.033,64.911 -44.042,64.404C-44.044,64.256 -44.222,64.093 -44.193,63.964C-43.937,62.802 -43.654,61.646 -43.376,60.489C-43.257,59.996 -43.055,59.509 -43.025,59.011C-42.957,57.873 -43.051,56.721 -42.937,55.589C-42.698,53.21 -42.26,50.846 -42.111,48.463C-42.013,46.898 -42.278,45.311 -42.376,43.733C-42.428,42.899 -42.613,42.041 -42.481,41.237C-42.307,40.181 -41.873,39.226 -42.303,38.075C-42.515,37.51 -42.004,36.716 -42.017,36.029C-42.068,33.06 -42.232,30.092 -42.279,27.122C-42.327,24.088 -42.43,21.043 -42.237,18.02C-42.077,15.505 -41.368,13.026 -41.184,10.511C-40.981,7.733 -40.967,4.925 -41.106,2.142C-41.344,-2.604 -39.522,-6.742 -37.563,-10.855C-37.354,-11.291 -36.767,-11.546 -36.355,-11.885C-36.009,-11.435 -35.442,-11.023 -35.356,-10.527C-34.966,-8.29 -34.493,-6.032 -34.457,-3.774C-34.387,0.539 -34.604,4.856 -34.681,9.173C-34.696,10.001 -34.676,10.839 -34.565,11.658C-34.064,15.374 -34.707,19.003 -35.434,22.607C-36.31,26.95 -36.578,31.291 -36.248,35.718C-35.874,40.739 -35.75,45.769 -36.694,50.781C-36.991,52.36 -36.719,54.049 -36.676,55.687C-36.624,57.666 -36.295,59.617 -37.01,61.608C-37.384,62.649 -37.153,63.927 -37.104,65.094C-37.077,65.715 -36.654,66.048 -36.016,65.754C-34.741,65.166 -33.205,65.171 -32.219,63.884C-31.932,63.508 -31.146,63.403 -30.58,63.376C-29.484,63.325 -28.381,63.463 -27.283,63.435C-26.621,63.417 -25.929,63.328 -25.312,63.102C-24.666,62.865 -24.172,62.637 -23.65,63.348C-23.526,63.516 -22.91,63.366 -22.532,63.295C-20.137,62.847 -17.737,62.421 -15.358,61.899C-14.15,61.634 -12.97,61.222 -11.802,60.808C-9.938,60.146 -8.1,59.687 -6.066,60.084C-4.653,60.361 -3.174,60.305 -1.797,59.611C0.445,58.48 2.833,58.567 5.229,58.904C6.328,59.059 7.347,59.241 8.445,58.604C8.87,58.358 9.763,58.922 10.419,59.094C11.935,59.636 13.553,58.134 14.938,59.252C15.534,59.387 15.922,59.473 16.31,59.562C18.329,60.029 20.345,60.498 22.365,60.959C22.597,61.012 22.963,61.136 23.058,61.034C23.987,60.031 25.21,60.298 26.35,60.206C26.542,60.19 26.738,60.218 26.932,60.219C28.158,60.226 29.441,60.466 30.595,60.182C32.31,59.761 33.883,59.637 35.577,60.284C36.888,60.785 38.311,61.011 39.699,61.287C40.505,61.447 41.375,61.346 42.152,61.578C42.871,61.793 43.649,62.162 44.143,62.7C44.97,63.601 45.716,64.626 46.266,65.715C46.979,67.125 46.444,68.23 44.894,68.253C42.762,68.285 40.625,67.908 38.488,67.728C37.867,67.675 37.236,67.74 36.617,67.677C35.638,67.579 34.644,67.503 33.698,67.258C32.856,67.04 32.097,66.476 31.252,66.297C30.269,66.09 29.208,65.97 28.222,66.106C25.816,66.441 23.445,67.164 21.013,66.215C20.681,66.086 20.231,66.284 19.835,66.291C18.712,66.313 17.588,66.288 16.466,66.333C15.871,66.358 15.279,66.492 14.872,66.55" style="fill-rule:nonzero;"/></g></g><g transform="matrix(4.16667,0,0,4.16667,0,0)"><g transform="matrix(1,0,0,1,113.389,118.621)"><path d="M0,-11.335C0.107,-11.69 0.16,-12.161 0.268,-12.174C1.425,-12.315 2.051,-13.058 2.599,-13.981C2.704,-14.159 3.163,-14.147 3.464,-14.186C4.237,-14.286 5.013,-14.385 5.79,-14.44C6.038,-14.458 6.44,-14.419 6.525,-14.268C7.259,-12.961 8.094,-11.677 8.579,-10.276C8.988,-9.092 8.275,-8.222 7.056,-7.851C6.763,-7.762 6.346,-7.711 6.222,-7.503C5.787,-6.772 5.273,-7.025 4.802,-7.335C3.976,-7.877 3.465,-7.696 3.002,-6.837C2.689,-6.259 2.261,-5.636 1.387,-6.013C1.294,-6.052 1.088,-6.039 1.058,-5.982C0.353,-4.703 -0.853,-4.927 -2,-4.908C-2.28,-4.903 -2.589,-4.689 -2.829,-4.5C-3.381,-4.064 -3.838,-3.401 -4.653,-4.176C-4.731,-4.251 -5.665,-3.751 -5.784,-3.382C-5.98,-2.776 -6.15,-2.476 -6.823,-2.585C-6.997,-2.614 -7.233,-2.475 -7.393,-2.35C-8.421,-1.547 -9.43,-0.72 -10.455,0.087C-11.234,0.701 -11.982,1.436 -13.123,1.01C-13.919,0.712 -14.274,1.175 -14.616,1.791C-15.321,3.062 -16.132,3.123 -17.067,1.971C-18.083,0.72 -18.003,-0.786 -17.942,-2.266C-17.88,-3.793 -17.554,-5.081 -15.896,-5.817C-14.535,-6.421 -13.351,-7.422 -12.092,-8.253C-11.902,-8.379 -11.641,-8.503 -11.571,-8.688C-11.219,-9.634 -10.49,-9.809 -9.618,-9.708C-8.813,-9.615 -8.339,-9.865 -8.027,-10.699C-7.903,-11.031 -7.141,-11.099 -6.7,-11.345C-5.317,-12.119 -3.892,-12.244 -2.373,-11.798C-1.631,-11.58 -0.849,-11.496 0,-11.335" style="fill-rule:nonzero;"/></g></g></g></svg>