<?xml version="1.0" standalone="no"?>
<!DOCTYPE svg PUBLIC "-//W3C//DTD SVG 20010904//EN"
 "http://www.w3.org/TR/2001/REC-SVG-20010904/DTD/svg10.dtd">
<svg version="1.0" xmlns="http://www.w3.org/2000/svg"
 width="1080.000000pt" height="1080.000000pt" viewBox="0 0 1080.000000 1080.000000"
 preserveAspectRatio="xMidYMid meet">
<metadata>
Created by potrace 1.14, written by Peter Selinger 2001-2017
</metadata>
<g transform="translate(0.000000,1080.000000) scale(0.100000,-0.100000)"
fill="#000000" stroke="none">
<path d="M3188 10777 c-50 -42 -170 -335 -204 -502 -12 -62 -15 -123 -16 -387
-2 -274 -4 -304 -30 -458 -28 -156 -29 -182 -31 -475 -1 -170 0 -409 2 -530 2
-121 0 -274 -3 -340 -10 -183 -10 -232 -1 -335 5 -52 8 -111 9 -130 0 -46 -17
-220 -28 -295 -9 -55 -16 -139 -21 -240 -2 -59 -15 -144 -30 -208 -15 -61 -28
-148 -30 -200 -2 -51 -8 -112 -14 -137 -10 -45 -9 -430 2 -446 28 -46 25 -661
-3 -715 -7 -13 -30 -43 -51 -66 -54 -59 -53 -92 4 -131 23 -16 52 -32 65 -36
12 -4 22 -11 22 -15 0 -4 7 -59 15 -122 10 -73 14 -142 9 -192 -6 -73 -4 -80
19 -115 18 -26 27 -54 30 -92 3 -39 12 -68 31 -97 23 -34 26 -48 20 -75 -9
-43 -7 -94 5 -117 6 -10 15 -58 21 -107 6 -49 13 -104 15 -122 3 -17 8 -49 11
-70 3 -20 7 -44 9 -52 3 -8 7 -44 10 -79 3 -35 17 -96 30 -136 13 -40 26 -94
29 -121 8 -69 17 -102 69 -246 55 -153 59 -160 103 -201 38 -35 68 -107 79
-189 6 -40 15 -60 40 -85 50 -50 66 -80 86 -159 24 -97 69 -183 143 -276 40
-50 71 -102 89 -150 15 -40 50 -107 76 -148 26 -41 69 -109 94 -151 26 -41 63
-95 84 -119 97 -110 124 -153 208 -332 22 -49 100 -128 158 -162 29 -18 44
-32 41 -41 -9 -23 40 -118 80 -157 21 -20 61 -47 89 -61 54 -25 147 -121 147
-150 0 -8 17 -34 38 -57 33 -38 43 -43 85 -44 39 -2 58 -10 112 -51 62 -47 85
-76 48 -60 -10 4 -52 15 -93 24 -48 11 -98 31 -135 54 -33 20 -66 37 -72 37
-7 0 -38 12 -70 27 -64 29 -72 31 -191 38 l-84 5 -90 -48 c-114 -60 -157 -96
-191 -164 -35 -68 -40 -115 -17 -165 23 -50 57 -83 160 -154 121 -83 141 -103
147 -148 6 -44 -16 -84 -96 -171 -28 -30 -54 -63 -57 -74 -18 -54 100 -70 191
-26 100 48 176 148 190 247 5 35 -5 119 -29 241 -11 53 21 69 82 42 21 -10
108 -65 193 -123 377 -257 539 -329 715 -320 181 9 309 95 580 389 55 59 106
115 114 123 32 35 384 482 483 615 64 85 150 215 215 323 78 131 355 646 399
743 19 41 41 89 48 105 82 181 155 350 170 395 10 30 21 60 25 65 4 6 17 36
29 68 23 62 27 130 11 172 -8 22 -6 32 10 55 11 15 29 70 40 122 66 314 81
366 148 508 69 145 93 217 107 315 3 22 10 63 15 90 5 28 14 91 20 140 6 50
13 101 15 115 2 14 6 54 10 90 4 36 8 76 10 90 1 14 6 54 10 90 4 36 9 79 11
95 2 17 6 59 9 95 3 36 8 79 10 95 2 17 7 62 10 100 3 39 8 86 10 105 2 19 7
64 10 100 3 36 8 81 10 100 3 19 7 64 10 100 10 113 16 143 36 168 23 30 24
65 3 97 -19 29 -25 137 -13 215 22 137 24 177 21 365 -4 240 -5 414 -3 675 0
107 -1 215 -4 240 -2 25 -6 79 -10 120 -6 78 -7 88 -25 230 -6 47 -13 103 -16
125 -4 36 -9 72 -19 145 -2 14 -7 50 -10 80 -3 30 -8 62 -10 70 -6 25 -18 231
-17 305 3 303 2 482 -3 550 -2 44 -7 118 -10 165 -3 47 -8 110 -10 140 -2 30
-7 100 -10 155 -3 54 -8 115 -10 135 -4 35 -15 241 -20 380 -3 81 -13 224 -21
280 -4 34 -7 49 -19 115 -10 49 -44 170 -91 321 -35 114 -50 147 -76 172 l-31
31 -24 -32 c-32 -44 -37 -62 -68 -282 -9 -60 -18 -123 -20 -140 -27 -184 -24
-430 5 -540 13 -45 19 -244 24 -775 2 -201 6 -378 9 -395 3 -16 8 -57 11 -90
8 -72 17 -143 23 -170 2 -11 8 -45 13 -75 6 -30 12 -65 15 -78 9 -47 44 -269
51 -322 4 -30 8 -127 9 -215 1 -88 7 -171 12 -184 6 -15 6 -42 1 -70 -9 -49
-3 -151 13 -213 5 -21 24 -70 41 -110 34 -80 58 -160 58 -196 0 -17 -8 -27
-29 -35 -17 -6 -32 -20 -35 -31 -19 -80 -30 -224 -31 -426 -2 -259 -4 -276
-44 -434 -5 -21 -8 -66 -6 -99 2 -45 -2 -71 -15 -97 -21 -41 -28 -85 -35 -225
-3 -55 -8 -136 -12 -180 -7 -87 -7 -127 0 -255 7 -127 -20 -257 -37 -178 l-8
33 -14 -40 c-18 -47 -20 -106 -10 -227 7 -76 5 -92 -13 -133 -11 -26 -26 -77
-32 -114 -6 -36 -18 -81 -25 -100 -8 -18 -14 -49 -14 -67 0 -27 4 -34 20 -34
24 0 24 -3 6 -55 -108 -307 -112 -320 -106 -358 6 -35 2 -46 -41 -113 -54 -83
-61 -110 -42 -167 14 -41 15 -38 -30 -120 -10 -19 -13 -38 -8 -55 12 -40 4
-77 -36 -172 -19 -47 -42 -107 -50 -135 -8 -27 -21 -65 -29 -82 -8 -18 -20
-48 -28 -65 -70 -158 -101 -216 -126 -236 -19 -15 -34 -41 -45 -80 -9 -31 -29
-82 -44 -112 -31 -64 -121 -230 -131 -245 -34 -46 -150 -297 -150 -323 0 -47
-21 -88 -85 -167 -83 -102 -102 -135 -108 -190 -6 -46 -12 -55 -84 -125 -97
-93 -158 -173 -209 -270 -27 -54 -66 -104 -135 -175 -53 -55 -159 -166 -235
-247 l-139 -146 -50 52 c-27 29 -74 79 -104 112 -30 32 -80 86 -110 119 -31
34 -69 75 -84 92 l-28 31 51 90 c75 132 86 186 61 303 -8 37 -6 201 5 359 11
170 5 234 -35 380 -27 94 -30 132 -37 410 -5 225 -7 263 -19 418 -4 55 -3 87
4 96 6 7 14 33 17 57 3 24 12 69 21 99 19 68 12 147 -33 370 -8 41 -13 95 -10
120 9 71 9 109 1 205 -8 86 -14 219 -14 314 -1 24 -11 67 -25 98 -14 29 -28
70 -32 91 -4 20 -21 64 -39 98 -18 33 -49 110 -69 170 -20 60 -52 132 -71 159
-18 28 -42 68 -53 90 -11 23 -40 59 -65 80 -116 102 -137 116 -177 119 -33 3
-50 13 -94 54 -47 45 -59 51 -95 50 -30 0 -51 7 -76 26 -59 45 -125 69 -195
72 -47 2 -85 11 -136 33 -73 31 -108 39 -204 45 -39 2 -66 10 -94 29 -21 15
-51 27 -65 28 -28 0 -84 6 -141 15 -19 2 -127 7 -240 11 -113 3 -206 6 -206 7
-1 0 -4 33 -8 71 -4 39 -8 81 -10 95 -3 14 -8 57 -11 95 -4 39 -9 84 -11 100
-2 17 -6 122 -9 233 l-6 204 33 -7 c49 -11 127 -7 188 10 185 51 221 56 304
49 103 -9 202 -10 291 -1 66 6 86 9 145 22 14 3 34 7 45 9 123 24 237 49 270
57 22 6 51 13 65 15 45 8 135 24 157 28 72 14 131 19 233 20 103 1 118 3 147
24 18 13 76 37 129 53 l96 30 27 -24 c53 -49 93 -52 281 -19 226 40 268 42
354 17 31 -9 64 -14 75 -10 40 12 286 13 341 1 62 -14 153 -12 250 5 145 25
206 19 356 -35 52 -19 101 -28 175 -32 57 -4 154 -12 214 -19 165 -18 278 -15
304 9 30 27 26 70 -13 140 -47 84 -112 155 -161 176 -23 10 -81 23 -130 29
-98 14 -177 31 -271 60 -69 21 -156 24 -224 9 -25 -5 -122 -11 -215 -11 -144
-2 -175 -5 -198 -19 -14 -10 -35 -18 -46 -18 -26 0 -351 76 -440 103 -31 10
-58 11 -90 5 -25 -5 -57 -10 -70 -13 -13 -2 -50 5 -82 16 -53 19 -62 19 -107
6 -26 -8 -64 -13 -83 -11 -19 2 -90 6 -159 9 -135 5 -196 -5 -285 -45 -51 -24
-94 -27 -300 -20 -72 2 -140 -12 -272 -56 -71 -24 -221 -62 -271 -69 -15 -2
-89 -16 -164 -30 -129 -26 -140 -26 -171 -12 -30 14 -39 15 -82 2 -31 -10 -93
-15 -177 -15 -124 0 -198 -14 -198 -38 0 -14 -69 -48 -148 -73 -73 -23 -74
-23 -88 -4 -8 10 -15 40 -15 67 -1 26 -2 58 -3 71 -1 12 7 56 17 97 16 65 18
97 12 245 -4 94 -7 190 -7 215 -1 45 11 170 17 180 4 7 17 119 21 185 5 97 4
301 -3 420 -9 160 -10 473 0 558 11 103 36 256 56 347 25 119 38 269 33 394
-5 109 -6 204 -3 741 1 149 0 284 -2 300 -30 219 -45 274 -83 313 -16 15 -14
16 -46 -11z m302 -5643 c19 -2 51 -7 70 -10 19 -3 46 -8 60 -10 22 -4 56 -9
115 -20 55 -9 194 -34 220 -39 240 -47 264 -53 377 -110 236 -118 324 -195
395 -343 24 -51 65 -123 92 -160 85 -119 116 -253 85 -371 -13 -51 -12 -66 16
-230 16 -97 32 -198 36 -226 3 -27 10 -70 14 -94 11 -63 5 -168 -14 -219 -14
-39 -14 -45 -1 -59 8 -8 15 -23 15 -34 0 -10 1 -115 1 -231 1 -117 5 -249 10
-293 4 -44 11 -102 13 -130 7 -64 22 -169 39 -267 19 -107 15 -212 -13 -358
-16 -81 -12 -213 9 -315 13 -66 19 -141 20 -279 2 -214 11 -201 -78 -121 -183
166 -227 218 -383 455 -85 129 -232 351 -327 494 -94 142 -171 261 -171 264 0
3 -8 15 -18 26 -27 31 -131 198 -185 296 -25 47 -93 202 -151 345 -57 143
-120 297 -140 343 -57 132 -136 418 -186 667 -16 83 -34 173 -40 200 -6 28
-28 77 -50 110 -29 44 -40 70 -40 98 0 21 -7 70 -15 110 -8 40 -16 86 -18 102
-3 24 -9 30 -25 28 -21 -3 -21 -2 -4 33 17 36 17 37 -6 52 -12 8 -22 23 -22
33 0 32 59 251 72 266 10 12 29 14 103 9 49 -4 106 -9 125 -12z m1576 -4382
c28 -26 65 -60 83 -75 35 -30 33 -47 -4 -47 -19 0 -28 9 -39 33 -7 19 -37 53
-65 77 -28 24 -51 47 -51 52 0 19 28 5 76 -40z"/>
<path d="M7168 5974 c-2 -1 -22 -4 -45 -5 -36 -2 -47 -9 -77 -45 -20 -24 -51
-47 -70 -54 -19 -6 -38 -20 -41 -31 -8 -23 -21 -23 -105 -3 -101 25 -165 21
-254 -17 -42 -17 -76 -36 -76 -40 0 -26 -42 -49 -89 -49 -44 0 -53 -4 -92 -43
-47 -46 -162 -126 -246 -172 -42 -22 -58 -38 -78 -78 -22 -46 -24 -61 -22
-156 2 -89 6 -112 24 -141 54 -88 101 -100 144 -37 34 50 47 57 93 51 23 -3
52 -1 66 4 21 8 145 102 225 169 11 10 30 18 42 18 26 2 53 22 53 40 0 7 12
20 26 30 22 14 31 15 52 6 22 -11 31 -8 68 18 32 24 53 31 88 31 54 0 114 22
122 45 4 10 19 15 45 15 30 0 42 6 56 26 46 66 53 69 121 42 25 -10 36 -10 50
-1 9 7 40 23 69 37 59 28 84 65 76 111 -3 17 -29 75 -58 130 l-52 100 -56 1
c-31 1 -58 0 -59 -2z"/>
</g>
</svg>
